<mxfile host="app.diagrams.net" modified="2023-06-06T23:22:17.985Z" agent="Mozilla/5.0 (Windows NT 10.0; Win64; x64) AppleWebKit/537.36 (KHTML, like Gecko) Chrome/113.0.0.0 Safari/537.36" etag="UWg7Ks17q7buuxem-4rQ" version="21.3.7" type="github">
  <diagram name="Page-1" id="6H0oOdo7w3Y5R2u6bl8a">
    <mxGraphModel dx="2173" dy="717" grid="1" gridSize="10" guides="1" tooltips="1" connect="1" arrows="1" fold="1" page="1" pageScale="1" pageWidth="850" pageHeight="1100" math="0" shadow="0">
      <root>
        <mxCell id="0" />
        <mxCell id="1" parent="0" />
        <mxCell id="I8MswwqGcmPU06s8K6Hd-2" value="" style="rounded=0;whiteSpace=wrap;html=1;" vertex="1" parent="1">
          <mxGeometry x="120" y="20" width="490" height="60" as="geometry" />
        </mxCell>
        <mxCell id="I8MswwqGcmPU06s8K6Hd-3" value="incio" style="rounded=0;whiteSpace=wrap;html=1;" vertex="1" parent="1">
          <mxGeometry x="220" y="30" width="90" height="40" as="geometry" />
        </mxCell>
        <mxCell id="I8MswwqGcmPU06s8K6Hd-4" value="asignaturas" style="rounded=0;whiteSpace=wrap;html=1;" vertex="1" parent="1">
          <mxGeometry x="320" y="30" width="90" height="40" as="geometry" />
        </mxCell>
        <mxCell id="I8MswwqGcmPU06s8K6Hd-5" value="contacto" style="rounded=0;whiteSpace=wrap;html=1;" vertex="1" parent="1">
          <mxGeometry x="420" y="30" width="90" height="40" as="geometry" />
        </mxCell>
        <mxCell id="I8MswwqGcmPU06s8K6Hd-6" value="" style="rounded=0;whiteSpace=wrap;html=1;" vertex="1" parent="1">
          <mxGeometry x="-280" y="100" width="370" height="360" as="geometry" />
        </mxCell>
        <mxCell id="I8MswwqGcmPU06s8K6Hd-8" value="Carrousel" style="rounded=0;whiteSpace=wrap;html=1;" vertex="1" parent="1">
          <mxGeometry x="-260" y="120" width="330" height="110" as="geometry" />
        </mxCell>
        <mxCell id="I8MswwqGcmPU06s8K6Hd-9" value="img" style="rounded=0;whiteSpace=wrap;html=1;" vertex="1" parent="1">
          <mxGeometry x="-180" y="240" width="60" height="60" as="geometry" />
        </mxCell>
        <mxCell id="I8MswwqGcmPU06s8K6Hd-10" value="img" style="rounded=0;whiteSpace=wrap;html=1;" vertex="1" parent="1">
          <mxGeometry x="-120" y="240" width="60" height="60" as="geometry" />
        </mxCell>
        <mxCell id="I8MswwqGcmPU06s8K6Hd-11" value="img" style="rounded=0;whiteSpace=wrap;html=1;" vertex="1" parent="1">
          <mxGeometry x="-60" y="240" width="60" height="60" as="geometry" />
        </mxCell>
        <mxCell id="I8MswwqGcmPU06s8K6Hd-12" value="Frequency Questions" style="rounded=0;whiteSpace=wrap;html=1;" vertex="1" parent="1">
          <mxGeometry x="-260" y="310" width="330" height="80" as="geometry" />
        </mxCell>
        <mxCell id="I8MswwqGcmPU06s8K6Hd-13" value="footer" style="rounded=0;whiteSpace=wrap;html=1;" vertex="1" parent="1">
          <mxGeometry x="120" y="480" width="490" height="60" as="geometry" />
        </mxCell>
        <mxCell id="I8MswwqGcmPU06s8K6Hd-14" value="" style="rounded=0;whiteSpace=wrap;html=1;" vertex="1" parent="1">
          <mxGeometry x="630" y="100" width="370" height="360" as="geometry" />
        </mxCell>
        <mxCell id="I8MswwqGcmPU06s8K6Hd-15" value="input" style="rounded=0;whiteSpace=wrap;html=1;" vertex="1" parent="1">
          <mxGeometry x="850" y="130" width="130" height="30" as="geometry" />
        </mxCell>
        <mxCell id="I8MswwqGcmPU06s8K6Hd-16" value="input" style="rounded=0;whiteSpace=wrap;html=1;" vertex="1" parent="1">
          <mxGeometry x="850" y="180" width="130" height="30" as="geometry" />
        </mxCell>
        <mxCell id="I8MswwqGcmPU06s8K6Hd-17" value="input" style="rounded=0;whiteSpace=wrap;html=1;" vertex="1" parent="1">
          <mxGeometry x="850" y="230" width="130" height="30" as="geometry" />
        </mxCell>
        <mxCell id="I8MswwqGcmPU06s8K6Hd-18" value="input" style="rounded=0;whiteSpace=wrap;html=1;" vertex="1" parent="1">
          <mxGeometry x="850" y="275" width="130" height="30" as="geometry" />
        </mxCell>
        <mxCell id="I8MswwqGcmPU06s8K6Hd-19" value="button" style="rounded=1;whiteSpace=wrap;html=1;" vertex="1" parent="1">
          <mxGeometry x="900" y="370" width="80" height="30" as="geometry" />
        </mxCell>
        <mxCell id="I8MswwqGcmPU06s8K6Hd-20" value="map" style="ellipse;whiteSpace=wrap;html=1;aspect=fixed;" vertex="1" parent="1">
          <mxGeometry x="660" y="130" width="170" height="170" as="geometry" />
        </mxCell>
        <mxCell id="I8MswwqGcmPU06s8K6Hd-21" value="" style="rounded=0;whiteSpace=wrap;html=1;" vertex="1" parent="1">
          <mxGeometry x="120" y="100" width="490" height="360" as="geometry" />
        </mxCell>
        <mxCell id="I8MswwqGcmPU06s8K6Hd-23" value="subject&amp;nbsp;" style="rounded=0;whiteSpace=wrap;html=1;" vertex="1" parent="1">
          <mxGeometry x="140" y="120" width="120" height="100" as="geometry" />
        </mxCell>
        <mxCell id="I8MswwqGcmPU06s8K6Hd-24" value="&#xa;&lt;span style=&quot;color: rgb(0, 0, 0); font-family: Helvetica; font-size: 12px; font-style: normal; font-variant-ligatures: normal; font-variant-caps: normal; font-weight: 400; letter-spacing: normal; orphans: 2; text-align: center; text-indent: 0px; text-transform: none; widows: 2; word-spacing: 0px; -webkit-text-stroke-width: 0px; background-color: rgb(251, 251, 251); text-decoration-thickness: initial; text-decoration-style: initial; text-decoration-color: initial; float: none; display: inline !important;&quot;&gt;subject&amp;nbsp;&lt;/span&gt;&#xa;&#xa;" style="rounded=0;whiteSpace=wrap;html=1;" vertex="1" parent="1">
          <mxGeometry x="140" y="230" width="120" height="100" as="geometry" />
        </mxCell>
        <mxCell id="I8MswwqGcmPU06s8K6Hd-25" value="&#xa;&lt;span style=&quot;color: rgb(0, 0, 0); font-family: Helvetica; font-size: 12px; font-style: normal; font-variant-ligatures: normal; font-variant-caps: normal; font-weight: 400; letter-spacing: normal; orphans: 2; text-align: center; text-indent: 0px; text-transform: none; widows: 2; word-spacing: 0px; -webkit-text-stroke-width: 0px; background-color: rgb(251, 251, 251); text-decoration-thickness: initial; text-decoration-style: initial; text-decoration-color: initial; float: none; display: inline !important;&quot;&gt;subject&amp;nbsp;&lt;/span&gt;&#xa;&#xa;" style="rounded=0;whiteSpace=wrap;html=1;" vertex="1" parent="1">
          <mxGeometry x="140" y="340" width="120" height="100" as="geometry" />
        </mxCell>
        <mxCell id="I8MswwqGcmPU06s8K6Hd-26" value="history" style="rounded=0;whiteSpace=wrap;html=1;" vertex="1" parent="1">
          <mxGeometry x="280" y="120" width="310" height="320" as="geometry" />
        </mxCell>
        <mxCell id="I8MswwqGcmPU06s8K6Hd-30" value="student" style="rounded=0;whiteSpace=wrap;html=1;" vertex="1" parent="1">
          <mxGeometry x="440" y="340" width="140" height="90" as="geometry" />
        </mxCell>
      </root>
    </mxGraphModel>
  </diagram>
</mxfile>
